<?xml version="1.0" encoding="utf-8"?>
<!-- Generator: Adobe Illustrator 18.0.0, SVG Export Plug-In . SVG Version: 6.00 Build 0)  -->
<!DOCTYPE svg PUBLIC "-//W3C//DTD SVG 1.1//EN" "http://www.w3.org/Graphics/SVG/1.1/DTD/svg11.dtd">
<svg version="1.1" id="Capa_1" xmlns="http://www.w3.org/2000/svg" xmlns:xlink="http://www.w3.org/1999/xlink" x="0px" y="0px"
	 viewBox="0 0 595.3 841.9" enable-background="new 0 0 595.3 841.9" xml:space="preserve">
<rect x="26.2" y="430.7" opacity="0.1" fill="#A11D21" width="253.7" height="50.5"/>
<rect x="313.5" y="430.7" opacity="0.1" fill="#A11D21" width="252.9" height="50.5"/>
<image overflow="visible" width="82" height="82" xlink:href="COIN_PRIVATE_QR.png"  transform="matrix(0.7951 0 0 0.7951 263.4838 699.3392)">
</image>
<image overflow="visible" width="90" height="90" xlink:href="COIN_PUBLIC_QR.png"  transform="matrix(0.4724 0 0 0.4724 274.8224 537.9103)">
</image>
<text transform="matrix(1 0 0 1 56.9605 99.1526)"><tspan x="0" y="0" fill="#010101" font-family="'Courier'" font-size="20">B</tspan><tspan x="12" y="0" fill="#B8B8B6" font-family="'Courier'" font-size="20">ER</tspan><tspan x="36" y="0" fill="#010101" font-family="'Courier'" font-size="20">T</tspan><tspan x="48" y="0" fill="#B8B8B6" font-family="'Courier'" font-size="20">O</tspan><tspan x="60" y="0" fill="#010101" font-family="'Courier'" font-size="20">C</tspan><tspan x="72" y="0" fill="#B8B8B6" font-family="'Courier'" font-size="20">OIN</tspan><tspan x="108" y="0" fill="#010101" font-family="'Courier'" font-size="20"> - Open Source DIY Bitcoin coin</tspan></text>
<g>
	<rect x="320.4" y="165.1" fill="none" width="244.8" height="407.8"/>
	<text transform="matrix(1 0 0 1 320.4096 172.7371)"><tspan x="0" y="0" fill="#010101" font-family="'Courier-Bold'" font-size="12">INSTRUCCIONES</tspan><tspan x="0" y="14" fill="#010101" font-family="'Courier'" font-size="9"> </tspan><tspan x="0" y="28" fill="#010101" font-family="'Courier'" font-size="9">1) Imprima esta plantilla en papel</tspan><tspan x="0" y="42" fill="#010101" font-family="'Courier'" font-size="9">de alta calidad (90 gr/m2 o más) en una </tspan><tspan x="0" y="56" fill="#010101" font-family="'Courier'" font-size="9">impresora láser o de inyección de tinta. </tspan><tspan x="0" y="84" fill="#010101" font-family="'Courier'" font-size="9">2) Recorte los tres hexágonos en una sola </tspan><tspan x="0" y="98" fill="#010101" font-family="'Courier'" font-size="9">pieza.  </tspan><tspan x="0" y="126" fill="#010101" font-family="'Courier'" font-size="9">3) Pliéguela antes de colocarla en la moneda. </tspan><tspan x="0" y="154" fill="#010101" font-family="'Courier'" font-size="9">4) Recorte un hexágono de metracrilato</tspan><tspan x="0" y="168" fill="#010101" font-family="'Courier'" font-size="9">siguiendo la plantilla que aparece en la</tspan><tspan x="0" y="182" fill="#010101" font-family="'Courier'" font-size="9">parte inferior de esta hoja.</tspan><tspan x="0" y="210" fill="#010101" font-family="'Courier'" font-size="9">5) Inserte detro de la moneda, en este orden, </tspan><tspan x="0" y="224" fill="#010101" font-family="'Courier'" font-size="9">el metacrilato, la carátula y la arandela.</tspan><tspan x="0" y="252" fill="#010101" font-family="'Courier'" font-size="9"> </tspan><tspan x="0" y="266" fill="#010101" font-family="'Courier'" font-size="9">ATENCIÓN:  </tspan><tspan x="0" y="280" fill="#010101" font-family="'Courier'" font-size="9">Borre este fichero (bertocoin.svg) justo </tspan><tspan x="0" y="294" fill="#010101" font-family="'Courier'" font-size="9">después de imprimir esta hoja.</tspan></text>
</g>
<text transform="matrix(1 0 0 1 175.48 125.8213)" fill="#010101" font-family="'Courier'" font-size="15">http://bertocoin.github.com</text>
<polygon fill="none" stroke="#231F20" stroke-miterlimit="10" points="279.5,605 254.7,580.2 254.7,545.1 279.5,520.3 314.5,520.3 
	339.3,545.1 339.3,580.2 314.5,605 "/>
<polygon fill="#231F20" stroke="#231F20" stroke-miterlimit="10" points="279,690 254.2,665.2 254.2,630.2 279,605.4 314.1,605.4 
	338.9,630.2 338.9,665.2 314.1,690 "/>
<polygon fill="none" stroke="#231F20" stroke-miterlimit="10" points="279,775.1 254.2,750.3 254.2,715.2 279,690.4 314.1,690.4 
	338.9,715.2 338.9,750.3 314.1,775.1 "/>
<g id="oNuVDF.tif">
	<g>
		<path d="M262.5,559c0-0.5,0-1,0-1.5c0,0,0,0,0,0c0.9,0,1.7,0,2.6,0c0,0,0.1,0,0.1,0c0-0.7,0-1.5,0-2.2c0.4,0,0.9,0,1.3,0
			c0,0.7,0,1.5,0,2.2c0.4,0,0.7,0,1.1,0c0-0.7,0-1.5,0-2.2c0.5,0,0.9,0,1.4,0c0,0,0,0,0,0.1c0,0.7,0,1.4,0,2.1c0,0,0,0,0,0.1
			c0.1,0,0.1,0,0.2,0c0.4,0,0.9,0.1,1.3,0.2c0.5,0.1,0.9,0.4,1.3,0.7c0.4,0.4,0.6,0.9,0.6,1.5c0,0.9-0.3,1.6-1.1,2.1c0,0,0,0,0,0
			c0.1,0,0.3,0.1,0.4,0.1c0.8,0.3,1.3,0.8,1.4,1.6c0,0.1,0,0.3,0.1,0.4c0,0.2,0,0.4,0,0.6c0,0.1,0,0.3-0.1,0.4
			c-0.1,0.9-0.6,1.6-1.4,2c-0.6,0.3-1.2,0.4-1.9,0.5c-0.2,0-0.5,0-0.7,0.1c0,0,0,0.1,0,0.1c0,0.7,0,1.4,0,2.1c0,0,0,0.1,0,0.1
			c-0.5,0-0.9,0-1.4,0c0-0.7,0-1.5,0-2.2c-0.4,0-0.7,0-1.1,0c0,0.7,0,1.5,0,2.2c-0.4,0-0.9,0-1.3,0c0-0.7,0-1.5,0-2.3
			c-0.1,0-0.1,0-0.1,0c-0.6,0-1.1,0-1.7,0c-0.3,0-0.6,0-0.9,0c0,0,0,0,0-0.1c0-0.2,0.1-0.4,0.1-0.5c0.1-0.3,0.1-0.7,0.2-1
			c0,0,0.1,0,0.1,0c0.3,0,0.6,0,0.9,0c0.3,0,0.5-0.2,0.5-0.5c0-2,0-3.9,0-5.9c0-0.1,0-0.1,0-0.2c-0.1-0.3-0.3-0.5-0.7-0.5
			C263.2,559,262.8,559,262.5,559z M266.6,563.2c0,1,0,2,0,3c0,0,0,0,0,0c0.7,0,1.3,0,2-0.1c0.4-0.1,0.8-0.2,1.2-0.4
			c0.7-0.4,0.8-1.3,0.3-1.9c-0.3-0.3-0.6-0.4-0.9-0.5C268.3,563.1,267.5,563.1,266.6,563.2C266.6,563.1,266.6,563.1,266.6,563.2z
			 M266.6,559.1c0,0.9,0,1.8,0,2.7c0,0,0,0,0,0c0.5,0,1,0,1.5-0.1c0.4-0.1,0.7-0.1,1.1-0.3c0.7-0.4,0.6-1.3,0.2-1.7
			c-0.2-0.2-0.5-0.4-0.8-0.4C268,559,267.3,559,266.6,559.1z"/>
		<path fill="#FFFFFF" d="M273.1,564.2c0-0.1,0-0.3-0.1-0.4c-0.2-0.8-0.7-1.3-1.4-1.6c-0.1,0-0.3-0.1-0.4-0.1c0,0,0,0,0,0
			c0.8-0.4,1.2-1.1,1.1-2.1c0-0.6-0.2-1.1-0.6-1.5c-0.3-0.4-0.8-0.6-1.3-0.7c-0.4-0.1-0.9-0.2-1.3-0.2c-0.1,0-0.1,0-0.2,0
			c0,0,0-0.1,0-0.1c0-0.7,0-1.4,0-2.1c0,0,0,0,0-0.1c1.4,0,2.7,0,4.1,0C273.1,558.3,273.1,561.2,273.1,564.2z"/>
		<path fill="#FFFFFF" d="M262.5,559c0.3,0,0.7,0,1,0c0.4,0,0.6,0.2,0.7,0.5c0,0.1,0,0.1,0,0.2c0,2,0,3.9,0,5.9
			c0,0.3-0.2,0.5-0.5,0.5c-0.3,0-0.6,0-0.9,0c0,0-0.1,0-0.1,0c-0.1,0.3-0.1,0.7-0.2,1c0,0.2-0.1,0.4-0.1,0.5
			C262.5,564.8,262.5,561.9,262.5,559z"/>
		<path fill="#FFFFFF" d="M269,570C269,570,269,569.9,269,570c0-0.8,0-1.5,0-2.2c0,0,0-0.1,0-0.1c0.2,0,0.5,0,0.7-0.1
			c0.7-0.1,1.3-0.2,1.9-0.5c0.8-0.4,1.3-1.1,1.4-2c0-0.1,0-0.3,0.1-0.4c0,1.7,0,3.5,0,5.2C271.7,570,270.4,570,269,570z"/>
		<path fill="#FFFFFF" d="M262.5,567.7c0.3,0,0.6,0,0.9,0c0.6,0,1.1,0,1.7,0c0,0,0.1,0,0.1,0c0,0.8,0,1.5,0,2.3c-0.9,0-1.8,0-2.7,0
			C262.5,569.2,262.5,568.5,262.5,567.7z"/>
		<path fill="#FFFFFF" d="M265.2,555.3c0,0.7,0,1.5,0,2.2c0,0-0.1,0-0.1,0c-0.9,0-1.7,0-2.6,0c0,0,0,0,0,0c0-0.7,0-1.5,0-2.2
			C263.4,555.3,264.3,555.3,265.2,555.3z"/>
		<path fill="#FFFFFF" d="M266.6,570c0-0.7,0-1.5,0-2.2c0.4,0,0.7,0,1.1,0c0,0.7,0,1.5,0,2.2C267.3,570,266.9,570,266.6,570z"/>
		<path fill="#FFFFFF" d="M267.6,555.3c0,0.7,0,1.4,0,2.2c-0.4,0-0.7,0-1.1,0c0-0.7,0-1.4,0-2.2
			C266.9,555.3,267.3,555.3,267.6,555.3z"/>
		<path fill="#FFFFFF" d="M266.6,563.2C266.6,563.1,266.6,563.1,266.6,563.2c0.9,0,1.7-0.1,2.5,0.1c0.4,0.1,0.7,0.2,0.9,0.5
			c0.5,0.6,0.4,1.5-0.3,1.9c-0.4,0.2-0.8,0.3-1.2,0.4c-0.7,0.1-1.3,0.1-2,0.1c0,0,0,0,0,0C266.6,565.1,266.6,564.1,266.6,563.2z"/>
		<path fill="#FFFFFF" d="M266.6,559.1c0.7,0,1.4-0.1,2.1,0.1c0.3,0.1,0.6,0.2,0.8,0.4c0.4,0.4,0.5,1.3-0.2,1.7
			c-0.3,0.2-0.7,0.3-1.1,0.3c-0.5,0.1-1,0.1-1.5,0.1c0,0,0,0,0,0C266.6,560.9,266.6,560,266.6,559.1z"/>
	</g>
</g>
<g>
	<text transform="matrix(1 0 0 1 259.9593 639.1508)" fill="#FFFFFF" font-family="'PTMono-Bold'" font-size="7">Coin_::serial::_PRIVATE </text>
</g>
<text transform="matrix(1 0 0 1 275.6206 701.3392)"><tspan x="0" y="0" fill="#010101" font-family="'CourierNewPS-BoldMT'" font-size="7">secret key</tspan><tspan x="-2.1" y="64.9" fill="#010101" font-family="'CourierNewPS-BoldMT'" font-size="7">don’t share</tspan></text>
<text transform="matrix(1 0 0 1 274.9587 621.4642)" fill="#FFFFFF" font-family="'PTMono-Bold'" font-size="7">secret key</text>
<text transform="matrix(1 0 0 1 274.0837 677.2142)" fill="#FFFFFF" font-family="'PTMono-Bold'" font-size="7">don’t share</text>
<g>
	<text transform="matrix(1 0 0 1 259.626 632.8174)"><tspan x="0" y="0" fill="#FFFFFF" font-family="'PTMono-Bold'" font-size="7"> </tspan><tspan x="0" y="16" fill="#FFFFFF" font-family="'PTMono-Bold'" font-size="7">::secret.0001::</tspan><tspan x="63" y="16" font-family="'PTMono-Bold'" font-size="7">    </tspan><tspan x="0" y="24" fill="#FFFFFF" font-family="'PTMono-Bold'" font-size="7">::secret.0002::    </tspan></text>
</g>
<g>
	<text transform="matrix(1 0 0 1 275.9593 571.484)"><tspan x="0" y="0" fill="#231F20" font-family="'PTMono-Bold'" font-size="7"> </tspan><tspan x="0" y="12" fill="#231F20" font-family="'PTMono-Bold'" font-size="6">::address.0001::    </tspan><tspan x="0" y="18" fill="#231F20" font-family="'PTMono-Bold'" font-size="6">::address.0002::    </tspan><tspan x="0" y="24" fill="#231F20" font-family="'PTMono-Bold'" font-size="6"> </tspan></text>
</g>
<rect x="36.2" y="165.1" fill="none" width="243.7" height="358.2"/>
<text transform="matrix(1 0 0 1 36.2299 172.7371)" fill="#010101" font-family="'Courier-Bold'" font-size="12">INSTRUCTIONS</text>
<text transform="matrix(1 0 0 1 36.2299 186.7371)" fill="#010101" font-family="'Courier'" font-size="9"> </text>
<text transform="matrix(1 0 0 1 36.2299 200.7371)" fill="#010101" font-family="'Courier'" font-size="9">1) Print this template in high quality paper </text>
<text transform="matrix(1 0 0 1 36.2299 214.7371)" fill="#010101" font-family="'Courier'" font-size="9">(90 gr/m</text>
<text transform="matrix(0.583 0 0 0.583 79.433 211.74)" fill="#010101" font-family="'Courier'" font-size="9">2</text>
<text transform="matrix(1 0 0 1 82.5815 214.7371)" fill="#010101" font-family="'Courier'" font-size="9"> or more) with a laser or inkjet </text>
<text transform="matrix(1 0 0 1 36.2299 228.7371)" fill="#010101" font-family="'Courier'" font-size="9">printer.  </text>
<text transform="matrix(1 0 0 1 36.2299 256.7371)" fill="#010101" font-family="'Courier'" font-size="9">2) Cut out the three hexagons as a single </text>
<text transform="matrix(1 0 0 1 36.2299 270.7371)" fill="#010101" font-family="'Courier'" font-size="9">piece.  </text>
<text transform="matrix(1 0 0 1 36.2299 298.7371)" fill="#010101" font-family="'Courier'" font-size="9">3) Fold it before placing it inside the coin. </text>
<text transform="matrix(1 0 0 1 36.2299 326.7371)" fill="#010101" font-family="'Courier'" font-size="9">4) Cut out a piece of methacrylate using the </text>
<text transform="matrix(1 0 0 1 36.2299 340.7371)" fill="#010101" font-family="'Courier'" font-size="9">hexagon shape placed the bottom right of this </text>
<text transform="matrix(1 0 0 1 36.2299 354.7371)" fill="#010101" font-family="'Courier'" font-size="9">page.</text>
<text transform="matrix(1 0 0 1 36.2299 382.7371)" fill="#010101" font-family="'Courier'" font-size="9">5) Place inside the coin, in this order, the </text>
<text transform="matrix(1 0 0 1 36.2299 396.7371)" fill="#010101" font-family="'Courier'" font-size="9">methacrylate, the paper cutout and the </text>
<text transform="matrix(1 0 0 1 36.2299 410.7371)" fill="#010101" font-family="'Courier'" font-size="9">washer.</text>
<text transform="matrix(1 0 0 1 36.2299 424.7371)" fill="#010101" font-family="'Courier'" font-size="9"> </text>
<text transform="matrix(1 0 0 1 36.2299 438.7371)" fill="#010101" font-family="'Courier'" font-size="9">WARNING:  </text>
<text transform="matrix(1 0 0 1 36.2299 452.7371)" fill="#010101" font-family="'Courier'" font-size="9">Delete this file (bertocoin.svg) immediately </text>
<text transform="matrix(1 0 0 1 36.2299 466.7371)" fill="#010101" font-family="'Courier'" font-size="9">after printing this template.</text>
<g>
	<g>
		<line fill="none" stroke="#000000" x1="56.7" y1="563.4" x2="232.1" y2="563.4"/>
		<g>
			<polygon points="231.3,557.3 231.3,569.5 237.3,563.4 			"/>
		</g>
	</g>
</g>
<rect x="56" y="531.4" fill="none" width="166.7" height="73"/>
<text transform="matrix(1 0 0 1 56 538.3555)"><tspan x="0" y="0" fill="#010101" font-family="'CourierNewPS-BoldMT'" font-size="11">Keep THIS side to the </tspan><tspan x="0" y="14" fill="#010101" font-family="'CourierNewPS-BoldMT'" font-size="11">outside of the coin.</tspan><tspan x="0" y="42" fill="#010101" font-family="'CourierNewPS-BoldMT'" font-size="11">Dejar esta cara hacia</tspan><tspan x="0" y="56" fill="#010101" font-family="'CourierNewPS-BoldMT'" font-size="11">el exterior de la moneda.</tspan></text>
<g>
	<g>
		<polygon fill="#FFFFFF" points="434.1,775.1 409.2,750.3 409.2,715.2 434.1,690.4 469.1,690.4 493.9,715.2 493.9,750.3 
			469.1,775.1 		"/>
		<g>
			<polyline fill="none" stroke="#231F20" stroke-miterlimit="10" points="410.3,751.4 409.2,750.3 409.2,748.8 			"/>
			<polyline fill="none" stroke="#231F20" stroke-miterlimit="10" stroke-dasharray="3.0247,3.0247" points="409.2,745.8 
				409.2,715.2 434.1,690.4 469.1,690.4 493.9,715.2 493.9,747.3 			"/>
			<polyline fill="none" stroke="#231F20" stroke-miterlimit="10" points="493.9,748.8 493.9,750.3 492.9,751.4 			"/>
			<polyline fill="none" stroke="#231F20" stroke-miterlimit="10" stroke-dasharray="2.9213,2.9213" points="490.8,753.4 
				469.1,775.1 434.1,775.1 411.3,752.4 			"/>
		</g>
	</g>
	<g>
		<text transform="matrix(1 0 0 1 415.5973 716.3083)"><tspan x="0" y="0" fill="#231F20" font-family="'PTMono-Bold'" font-size="5">Use this hexagon as a</tspan><tspan x="0" y="6" fill="#231F20" font-family="'PTMono-Bold'" font-size="5">guide to cut out a piece</tspan><tspan x="0" y="12" fill="#231F20" font-family="'PTMono-Bold'" font-size="5">of methacrylate. </tspan><tspan x="0" y="24" fill="#231F20" font-family="'PTMono-Bold'" font-size="5">Usar este hexágono como</tspan><tspan x="0" y="30" fill="#231F20" font-family="'PTMono-Bold'" font-size="5">guía para recortar una</tspan><tspan x="0" y="36" fill="#231F20" font-family="'PTMono-Bold'" font-size="5">pieza de metacrilato.</tspan></text>
	</g>
</g>
<g>
	<text transform="matrix(1 0 0 1 255.9594 538.8175)"><tspan x="0" y="0" fill="#231F20" font-family="'PTMono-Bold'" font-size="6">    </tspan><tspan x="14.4" y="0" fill="#231F20" font-family="'PTMono-Bold'" font-size="5.5">Coin_::serial::_PUBLIC</tspan></text>
</g>
<text transform="matrix(1 0 0 1 279.9832 595.163)" fill="#231F20" font-family="'PTMono-Bold'" font-size="6">::address.0003::</text>
<text transform="matrix(1 0 0 1 263.6491 665.4976)" fill="#FFFFFF" font-family="'PTMono-Bold'" font-size="7">::secret.0003::</text>
<g>
	<text transform="matrix(1 0 0 1 315.9122 564.0081)" fill="#231F20" font-family="'PTMono-Bold'" font-size="4.5">::f::          </text>
</g>
<rect x="26.1" y="155.1" fill="none" stroke="#231F20" stroke-miterlimit="10" width="253.6" height="326"/>
<rect x="313.1" y="155.1" fill="none" stroke="#231F20" stroke-miterlimit="10" width="253.6" height="326"/>
<g>
	<path fill="#231F20" d="M257.4,189.8c-6.8,0-12.4-5.5-12.4-12.4s5.5-12.4,12.4-12.4c6.8,0,12.4,5.5,12.4,12.4
		S264.2,189.8,257.4,189.8z M257.4,167.1c-5.7,0-10.4,4.6-10.4,10.4s4.6,10.4,10.4,10.4c5.7,0,10.4-4.6,10.4-10.4
		S263.1,167.1,257.4,167.1z"/>
	<g>
		<path d="M252.6,177.8c0.1,0.4,0.3,0.7,0.5,0.9c0.3,0.2,0.6,0.3,1.1,0.3s0.9-0.1,1.3-0.3c0.4-0.2,0.7-0.3,0.8-0.3
			c0.1,0,0.2,0,0.3,0.1c0.1,0.1,0.1,0.2,0.1,0.4c0,0.3-0.2,0.6-0.7,0.9c-0.5,0.2-1.1,0.4-1.8,0.4c-0.9,0-1.6-0.2-2.1-0.7
			c-0.5-0.5-0.8-1.1-0.8-1.9c0-0.8,0.3-1.4,0.8-1.9c0.5-0.5,1.2-0.7,2.1-0.7c0.8,0,1.4,0.2,1.9,0.7c0.5,0.5,0.8,1,0.8,1.7
			c0,0.2-0.1,0.4-0.2,0.4c-0.1,0.1-0.3,0.1-0.6,0.1H252.6z M255.5,176.9c-0.1-0.3-0.2-0.6-0.5-0.8c-0.3-0.2-0.6-0.3-1-0.3
			c-0.4,0-0.7,0.1-0.9,0.3c-0.2,0.2-0.4,0.4-0.5,0.8H255.5z"/>
		<path d="M262.9,178.7L262.9,178.7c0.3,0,0.4,0,0.5,0.1c0.1,0.1,0.2,0.2,0.2,0.4c0,0.2-0.1,0.4-0.2,0.5c-0.1,0.1-0.3,0.1-0.5,0.1
			h-1.3c-0.2,0-0.4,0-0.5-0.1c-0.1-0.1-0.2-0.2-0.2-0.5c0-0.2,0.1-0.3,0.2-0.4c0.1-0.1,0.3-0.1,0.5-0.1h0.1v-1.6
			c0-0.4-0.1-0.7-0.2-0.9c-0.1-0.2-0.3-0.3-0.6-0.3c-0.3,0-0.5,0.1-0.7,0.3c-0.2,0.2-0.3,0.5-0.3,0.9v1.6h0.1c0.2,0,0.4,0,0.5,0.1
			c0.1,0.1,0.2,0.2,0.2,0.4c0,0.2-0.1,0.4-0.2,0.5s-0.3,0.1-0.5,0.1h-1.3c-0.2,0-0.4,0-0.5-0.1s-0.2-0.2-0.2-0.5
			c0-0.2,0.1-0.3,0.2-0.4c0.1-0.1,0.3-0.1,0.5-0.1h0.1v-2.6h-0.1c-0.2,0-0.3,0-0.4-0.1c-0.1-0.1-0.2-0.2-0.2-0.4
			c0-0.2,0.1-0.4,0.2-0.5s0.3-0.1,0.5-0.1h0.9c0.1,0,0.2,0,0.2,0.1c0.1,0,0.1,0.1,0.1,0.2v0.4c0.2-0.3,0.4-0.5,0.6-0.6
			c0.3-0.1,0.6-0.2,0.9-0.2c0.6,0,1,0.2,1.3,0.5c0.3,0.3,0.4,0.9,0.4,1.6V178.7z"/>
	</g>
</g>
<g>
	<path fill="#231F20" d="M544.4,189.8c-6.8,0-12.4-5.5-12.4-12.4s5.5-12.4,12.4-12.4s12.4,5.5,12.4,12.4S551.2,189.8,544.4,189.8z
		 M544.4,167.1c-5.7,0-10.4,4.6-10.4,10.4s4.6,10.4,10.4,10.4c5.7,0,10.4-4.6,10.4-10.4S550.1,167.1,544.4,167.1z"/>
	<g>
		<path d="M539.8,177.8c0.1,0.4,0.3,0.7,0.5,0.9c0.3,0.2,0.6,0.3,1.1,0.3s0.9-0.1,1.3-0.3c0.4-0.2,0.7-0.3,0.8-0.3
			c0.1,0,0.2,0,0.3,0.1c0.1,0.1,0.1,0.2,0.1,0.4c0,0.3-0.2,0.6-0.7,0.9s-1.1,0.4-1.8,0.4c-0.9,0-1.6-0.2-2.1-0.7
			c-0.5-0.5-0.8-1.1-0.8-1.9c0-0.8,0.3-1.4,0.8-1.9c0.5-0.5,1.2-0.7,2.1-0.7c0.8,0,1.4,0.2,1.9,0.7c0.5,0.5,0.8,1,0.8,1.7
			c0,0.2-0.1,0.4-0.2,0.4c-0.1,0.1-0.3,0.1-0.6,0.1H539.8z M542.7,176.9c-0.1-0.3-0.2-0.6-0.5-0.8c-0.3-0.2-0.6-0.3-1-0.3
			c-0.4,0-0.7,0.1-0.9,0.3c-0.2,0.2-0.4,0.4-0.5,0.8H542.7z"/>
		<path d="M546.5,179.9c-0.1,0.1-0.2,0.1-0.3,0.2c-0.1,0-0.2,0.1-0.3,0.1c-0.2,0-0.3,0-0.3-0.1c-0.1-0.1-0.1-0.2-0.1-0.5v-0.7
			c0-0.2,0-0.4,0.1-0.5c0.1-0.1,0.2-0.1,0.4-0.1c0.2,0,0.4,0.1,0.5,0.3c0.1,0.1,0.1,0.2,0.2,0.2c0.2,0.2,0.4,0.3,0.6,0.4
			s0.5,0.1,0.8,0.1c0.3,0,0.5-0.1,0.6-0.2s0.2-0.2,0.2-0.4c0-0.3-0.4-0.5-1.2-0.6c-0.2,0-0.3,0-0.4-0.1c-0.6-0.1-1.1-0.3-1.4-0.5
			c-0.3-0.3-0.5-0.6-0.5-1c0-0.5,0.2-0.9,0.5-1.2s0.9-0.4,1.6-0.4c0.2,0,0.5,0,0.7,0.1c0.2,0,0.5,0.1,0.8,0.2
			c0.1-0.1,0.2-0.2,0.2-0.2c0.1,0,0.2-0.1,0.3-0.1c0.1,0,0.3,0,0.3,0.1c0.1,0.1,0.1,0.2,0.1,0.4v0.7c0,0.2,0,0.3-0.1,0.4
			c-0.1,0.1-0.2,0.1-0.3,0.1c-0.1,0-0.4-0.1-0.8-0.4c-0.4-0.3-0.7-0.4-1.1-0.4c-0.3,0-0.5,0-0.6,0.1c-0.2,0.1-0.2,0.2-0.2,0.4
			c0,0.3,0.3,0.4,1,0.5c0.2,0,0.3,0,0.4,0.1c0.8,0.1,1.4,0.3,1.7,0.5c0.3,0.2,0.5,0.6,0.5,1c0,0.5-0.2,1-0.6,1.3
			c-0.4,0.3-1,0.4-1.7,0.4c-0.3,0-0.6,0-0.8-0.1C547,180,546.7,179.9,546.5,179.9z"/>
	</g>
</g>
<g>
	<g>
		<line stroke="#231F20" stroke-miterlimit="10" x1="0" y1="18.2" x2="14.2" y2="18.2"/>
		<line stroke="#231F20" stroke-miterlimit="10" x1="18.2" y1="14.2" x2="18.2" y2="0"/>
	</g>
	<g>
		<line stroke="#231F20" stroke-miterlimit="10" x1="595.3" y1="18.2" x2="581.1" y2="18.2"/>
		<line stroke="#231F20" stroke-miterlimit="10" x1="577.1" y1="14.2" x2="577.1" y2="0"/>
	</g>
</g>
<g>
	<g>
		<line stroke="#231F20" stroke-miterlimit="10" x1="0" y1="823.7" x2="14.2" y2="823.7"/>
		<line stroke="#231F20" stroke-miterlimit="10" x1="18.2" y1="827.7" x2="18.2" y2="841.9"/>
	</g>
	<g>
		<line stroke="#231F20" stroke-miterlimit="10" x1="595.3" y1="823.7" x2="581.1" y2="823.7"/>
		<line stroke="#231F20" stroke-miterlimit="10" x1="577.1" y1="827.7" x2="577.1" y2="841.9"/>
	</g>
</g>
</svg>
